<svg width="158.25px" height="40.686px" enable-background="new 0 0 158.253 40.686" version="1.1" viewBox="0 0 158.25 40.686" xmlns="http://www.w3.org/2000/svg">
 <g fill="#021322">
  <g stroke-width="3.2772" aria-label="KitKat">
   <path d="m66.567 37.974q-0.96131 0-2.2285-1.1361-1.2672-1.1361-2.7091-3.015-1.3983-1.8789-2.7965-4.0637-1.3546-2.2285-2.5344-4.4133-1.1361-2.1848-1.9226-3.8889l-4.2385 13.721q-0.30587 1.005-0.96131 1.3983-0.65544 0.43696-1.442 0.52435-0.74283 0.08739-1.4857 0.08739 0.56805-1.2235 1.1361-2.7965 0.61174-1.5731 1.3983-3.8015 0.83022-2.2285 1.9226-5.4183 1.0924-3.1898 2.5781-7.6031 1.5294-4.457 3.5831-10.443 0.13109-0.34957 0.34957-0.96131 0.21848-0.65544 0.21848-1.1798 0-0.48065-0.21848-0.74283-0.21848-0.30587-0.83022-0.30587-1.0487 0-2.0537 0.87392-0.96131 0.83022-1.7478 2.1411-0.74283 1.3109-1.1798 2.7091-0.43696 1.3983-0.43696 2.4907 0 0.83022 0.21848 1.4857-1.442 0-2.0537-0.69913-0.56805-0.74283-0.56805-1.7915 0-1.4857 0.87392-2.9713t2.2285-2.7091q1.3983-1.2672 2.8839-2.01 1.5294-0.74283 2.7528-0.74283 1.1798 0 1.5731 0.65544 0.43696 0.65544 0.43696 1.442 0 0.48065-0.13109 0.96131-0.08739 0.48065-0.21848 0.91761l-3.6705 11.885q0.61174-0.87392 1.5731-1.6167 1.005-0.74283 2.1848-1.7041 1.9663-1.5731 4.1948-3.6705 2.2722-2.0974 4.3259-4.4133 2.0537-2.3159 3.4083-4.457 0.21848 0.26218 0.30587 0.91761 0.08739 0.65544 0.08739 1.005 0 1.3546-1.1361 2.9713-1.0924 1.6167-2.8839 3.3646-1.7915 1.7041-3.9326 3.4083-2.1411 1.6604-4.2385 3.1461-2.0537 1.4857-3.7142 2.5781 1.3109 2.2285 2.5344 4.2385 1.2672 2.01 2.7091 3.9326 1.4857 1.9226 3.452 3.9326 1.9663 2.01 4.7629 4.3259-0.30587 0.56805-0.96131 1.005-0.65544 0.43696-1.3983 0.43696z"/>
   <path d="m73.121 35.309q-1.7041 0-2.5344-1.0924-0.83022-1.0487-0.83022-2.5781 0-1.005 0.34957-2.5344 0.39326-1.5294 1.005-3.1898 0.61174-1.7041 1.3983-3.1898 0.83022-1.4857 1.7478-2.4033 0.91761-0.96131 1.7915-0.96131 0.39326 0 0.65544 0.26218 0.30587 0.21848 0.30587 0.69913 0 0.52435-0.69913 1.7041-0.65544 1.1798-1.5731 2.7091-0.91761 1.5294-1.6167 3.2335-0.65544 1.6604-0.65544 3.1898 0 1.5731 0.52435 2.0974 0.52435 0.52435 1.6167 0.52435 1.4857 0 3.1461-1.4857 1.7041-1.4857 3.5831-5.1998l0.39326 0.43696q-1.2672 3.7578-3.6705 5.7679-2.3596 2.01-4.9376 2.01zm5.2435-20.013q-0.69913 0-1.2672-0.34957-0.52435-0.34957-0.52435-1.0924 0-0.91761 1.0487-1.5731 1.0924-0.69913 2.1411-0.69913 0.65544 0 1.0487 0.30587 0.39326 0.30587 0.39326 1.0487 0 0.83022-0.91761 1.6167-0.87392 0.74283-1.9226 0.74283z"/>
   <path d="m84.22 36.183q-1.8789 0-2.8839-1.0924-1.005-1.0924-1.005-3.2335 0-1.9226 0.69913-4.7192 0.74283-2.8402 1.8352-5.8116-0.43696-0.08739-0.83022-0.13109-0.39326-0.08739-0.74283-0.21848v-0.78653q0.34957 0.0437 0.83022 0.08739 0.48066 0.0437 1.0924 0.08739 0.91761-2.3596 1.9663-4.5444 1.0487-2.2285 2.0537-3.9326 1.0487-1.7478 1.9663-2.7528 0.96131-1.0487 1.6167-1.0487 0.34957 0 0.61174 0.26218 0.30587 0.21848 0.30587 0.69913 0 0.74283-0.91761 2.447-0.91761 1.6604-2.2722 3.9763t-2.6218 5.025q0.39326 0 0.78653 0 0.43696 0 0.83022 0 1.442 0 3.015-0.0437 1.6167-0.0437 3.2335-0.21848v0.78653q-2.4033 0.26218-4.3259 0.39326-1.8789 0.13109-3.3646 0.13109-0.17478 0-0.34957 0-0.13109 0-0.30587 0-1.005 2.3159-1.7041 4.7629-0.69914 2.447-0.69914 4.7629 0 1.8789 0.56805 2.7091 0.56805 0.78653 1.8789 0.78653 2.2722 0 4.457-2.01t3.8452-5.462l0.56805 0.43696q-1.0487 2.447-2.6654 4.4133-1.5731 1.9663-3.4957 3.1024-1.9226 1.1361-3.9763 1.1361z"/>
   <path d="m114.59 37.974q-0.96131 0-2.2285-1.1361-1.2672-1.1361-2.7092-3.015-1.3983-1.8789-2.7965-4.0637-1.3546-2.2285-2.5344-4.4133-1.1361-2.1848-1.9226-3.8889l-4.2385 13.721q-0.30587 1.005-0.96131 1.3983-0.65544 0.43696-1.442 0.52435-0.74283 0.08739-1.4857 0.08739 0.56805-1.2235 1.1361-2.7965 0.61174-1.5731 1.3983-3.8015 0.83022-2.2285 1.9226-5.4183 1.0924-3.1898 2.5781-7.6031 1.5294-4.457 3.5831-10.443 0.13109-0.34957 0.34957-0.96131 0.21847-0.65544 0.21847-1.1798 0-0.48065-0.21847-0.74283-0.21848-0.30587-0.83023-0.30587-1.0487 0-2.0537 0.87392-0.96131 0.83022-1.7478 2.1411-0.74283 1.3109-1.1798 2.7091-0.43696 1.3983-0.43696 2.4907 0 0.83022 0.21848 1.4857-1.442 0-2.0537-0.69913-0.56805-0.74283-0.56805-1.7915 0-1.4857 0.87392-2.9713t2.2285-2.7091q1.3983-1.2672 2.8839-2.01 1.5294-0.74283 2.7528-0.74283 1.1798 0 1.573 0.65544 0.43696 0.65544 0.43696 1.442 0 0.48065-0.13109 0.96131-0.0874 0.48065-0.21848 0.91761l-3.6704 11.885q0.61174-0.87392 1.573-1.6167 1.005-0.74283 2.1848-1.7041 1.9663-1.5731 4.1948-3.6705 2.2722-2.0974 4.3259-4.4133 2.0537-2.3159 3.4083-4.457 0.21848 0.26218 0.30588 0.91761t0.0874 1.005q0 1.3546-1.1361 2.9713-1.0924 1.6167-2.8839 3.3646-1.7915 1.7041-3.9326 3.4083-2.1411 1.6604-4.2385 3.1461-2.0537 1.4857-3.7142 2.5781 1.3109 2.2285 2.5344 4.2385 1.2672 2.01 2.7092 3.9326 1.4857 1.9226 3.452 3.9326 1.9663 2.01 4.7629 4.3259-0.30587 0.56805-0.96131 1.005t-1.3983 0.43696z"/>
   <path d="m120.84 36.226q-1.3546 0-2.2722-0.91761-0.96131-0.87392-0.96131-2.7091 0-1.5731 0.69913-3.3646 0.69914-1.8352 1.9226-3.5831 1.2235-1.7915 2.7528-3.2335 1.573-1.4857 3.2772-2.3596 1.7478-0.87392 3.452-0.87392t2.8402 0.91761q1.1361 0.87392 1.1361 2.3596 0 1.0924-0.61174 1.4857-0.56805 0.39326-1.5294 0.39326 0.0874-0.34957 0.13109-0.74283 0.0874-0.43696 0.0874-0.78653 0-1.005-0.48065-1.7041-0.48066-0.74283-1.6604-0.74283-1.2235 0-2.4907 0.87392-1.2672 0.83022-2.447 2.2722-1.1798 1.3983-2.0974 3.0587-0.91761 1.6604-1.442 3.2772-0.52435 1.6167-0.52435 2.8839 0 1.7041 1.1798 1.7041 1.005 0 2.1848-0.91761 1.1798-0.96131 2.4033-2.4033 1.2672-1.4857 2.4033-3.0587 1.1361-1.5731 2.01-2.8839 0.17479-0.26218 0.21848-0.26218 0.26218 0.04369 0.65544 0.17478 0.43696 0.13109 0.74283 0.34957 0.30587 0.21848 0.30587 0.56805 0 0.39326-0.39326 1.0924-0.39326 0.65544-0.87392 1.5294-0.48065 0.87392-0.87392 1.7915-0.39326 0.87392-0.39326 1.6604 0 0.65544 0.34957 1.3109 0.34956 0.61174 1.1361 0.61174 1.1798 0 3.1024-1.7041 1.9226-1.7478 3.8889-5.1998l0.43696 0.43696q-0.91761 2.3596-2.3596 4.1511-1.442 1.7915-3.1024 2.7965-1.6168 1.005-3.1898 1.005-1.6167 0-2.4033-0.96131-0.74283-0.96131-0.74283-2.0974 0-0.26218 0.0437-0.56805 0.0437-0.34957 0.0874-0.69914-1.8789 2.5344-3.452 3.8015-1.5294 1.2672-3.1461 1.2672z"/>
   <path d="m141.51 36.183q-1.8789 0-2.8839-1.0924-1.005-1.0924-1.005-3.2335 0-1.9226 0.69914-4.7192 0.74283-2.8402 1.8352-5.8116-0.43696-0.08739-0.83023-0.13109-0.39326-0.08739-0.74283-0.21848v-0.78653q0.34957 0.0437 0.83022 0.08739 0.48066 0.0437 1.0924 0.08739 0.91762-2.3596 1.9663-4.5444 1.0487-2.2285 2.0537-3.9326 1.0487-1.7478 1.9663-2.7528 0.96131-1.0487 1.6168-1.0487 0.34957 0 0.61174 0.26218 0.30587 0.21848 0.30587 0.69913 0 0.74283-0.91761 2.447-0.91762 1.6604-2.2722 3.9763t-2.6218 5.025q0.39326 0 0.78652 0 0.43696 0 0.83023 0 1.442 0 3.015-0.0437 1.6168-0.0437 3.2335-0.21848v0.78653q-2.4033 0.26218-4.3259 0.39326-1.8789 0.13109-3.3646 0.13109-0.17478 0-0.34957 0-0.13108 0-0.30587 0-1.005 2.3159-1.7041 4.7629-0.69913 2.447-0.69913 4.7629 0 1.8789 0.56805 2.7091 0.56804 0.78653 1.8789 0.78653 2.2722 0 4.457-2.01 2.1848-2.01 3.8452-5.462l0.56805 0.43696q-1.0487 2.447-2.6654 4.4133-1.5731 1.9663-3.4957 3.1024-1.9226 1.1361-3.9763 1.1361z"/>
  </g>
  <path d="m5.1648 25.263 8.1472-8.1472-0.38791-0.12012c-0.24278-0.07505-0.4284-0.27178-0.48942-0.51843-0.06102-0.24664 0.01152-0.50719 0.19118-0.68689l3.7662-3.7662c0.13608-0.13607 0.32036-0.21244 0.51275-0.21244 0.19226 0 0.37679 0.07641 0.51274 0.21244l0.49317 0.49318 10.392-10.393c0.13595-0.13607 0.32036-0.21245 0.51262-0.21245 0.19226 0 0.3768 0.076414 0.51275 0.21245l6.1336 6.1338c8.48e-4 8.379e-4 0.0017 0.00171 0.0027 0.00282 8.49e-4 9.005e-4 0.0017 0.00171 0.0028 0.00282l6.1337 6.1337c0.28314 0.28314 0.28314 0.74223 0 1.0253l-5.4505 5.4505c-8.48e-4 8.48e-4 -9.02e-4 0.0017-0.0017 0.0028-7.22e-4 8.49e-4 -0.0017 9.04e-4 -0.0028 0.0017l-4.9376 4.9376 0.49317 0.49317c0.28314 0.28314 0.28314 0.74222 0 1.0252l-3.7659 3.7663c-0.13764 0.13776-0.32278 0.21244-0.51274 0.21244-0.05803 0-0.1165-0.0072-0.17414-0.02127-0.24664-0.06101-0.44338-0.24676-0.51854-0.48942l-0.12011-0.38804-8.1471 8.1472c-0.13608 0.13607-0.32036 0.21245-0.51275 0.21245-0.19226 0-0.37679-0.07638-0.51274-0.21245l-12.273-12.273c-0.28302-0.2829-0.28302-0.74199 1.213e-4 -1.0251zm18.882-6.6094 4.4273-4.4273-5.1108-5.111-4.4272 4.4273zm4.769-14.991-4.4273 4.4274 5.1109 5.111 4.4273-4.4273zm6.1363 6.1365-4.4274 4.4274 5.1111 5.1112 4.4273-4.4274zm-0.34151 10.564-5.1111-5.1112-4.4273 4.4274 5.111 5.1113zm-4.447 6.4586-0.49304-0.49305-1.26e-4 -1.19e-4c-1.18e-4 0-1.18e-4 -1.25e-4 -1.18e-4 -1.25e-4l-6.1347-6.1351c-4.78e-4 -4.77e-4 -9.02e-4 -8.37e-4 -0.0017-0.0017-4.78e-4 -6.13e-4 -8.46e-4 -9.01e-4 -0.0017-0.0017l-6.6275-6.6279-2.4036 2.4036 4.3057 1.3327c0.22864 0.07074 0.40762 0.24967 0.47831 0.47819l1.575 5.0891 5.089 1.575c0.22864 0.07074 0.40761 0.24967 0.47831 0.47831l1.3326 4.3059zm-12.213 10.202 8.1752-8.1752-0.97026-3.1351-5.089-1.575c-0.22864-0.07074-0.40749-0.24966-0.4783-0.4783l-1.575-5.089-3.1347-0.97014-8.1752 8.1752z" stroke-width=".12084"/>
 </g>
</svg>
