<?xml version="1.0" encoding="UTF-8" standalone="no"?>
<svg
   version="1.1"
   id="Layer_1"
   x="0px"
   y="0px"
   width="158.253px"
   height="40.686px"
   viewBox="0 0 158.253 40.686"
   enable-background="new 0 0 158.253 40.686"
   xml:space="preserve"
   sodipodi:docname="Logo-src.svg"
   inkscape:version="1.2.1 (9c6d41e410, 2022-07-14, custom)"
   xmlns:inkscape="http://www.inkscape.org/namespaces/inkscape"
   xmlns:sodipodi="http://sodipodi.sourceforge.net/DTD/sodipodi-0.dtd"
   xmlns="http://www.w3.org/2000/svg"
   xmlns:svg="http://www.w3.org/2000/svg"><defs
   id="defs35" /><sodipodi:namedview
   id="namedview33"
   pagecolor="#ffffff"
   bordercolor="#cccccc"
   borderopacity="1"
   inkscape:showpageshadow="0"
   inkscape:pageopacity="1"
   inkscape:pagecheckerboard="0"
   inkscape:deskcolor="#d1d1d1"
   showgrid="false"
   inkscape:zoom="6.1437811"
   inkscape:cx="66.489999"
   inkscape:cy="42.888898"
   inkscape:window-width="1916"
   inkscape:window-height="1048"
   inkscape:window-x="1600"
   inkscape:window-y="14"
   inkscape:window-maximized="1"
   inkscape:current-layer="g30" />
  <g
   fill="#021322"
   id="g30">
    
    
    
    
    
    
    
    
    <g
   id="g20">
      
    </g>
    
    
  <text
   xml:space="preserve"
   style="font-size:43.6959px;line-height:1.25;font-family:sans-serif;letter-spacing:0px;word-spacing:0px;stroke-width:3.27718"
   x="44.937126"
   y="34.172752"
   id="text640"><tspan
     sodipodi:role="line"
     id="tspan638"
     x="44.937126"
     y="34.172752"
     style="font-style:normal;font-variant:normal;font-weight:normal;font-stretch:normal;font-family:'Dancing Script';-inkscape-font-specification:'Dancing Script';stroke-width:3.27718">KitKat</tspan></text><path
   d="m 5.1648254,25.263076 8.1472406,-8.147237 -0.387912,-0.120125 c -0.242778,-0.07505 -0.428395,-0.271783 -0.489422,-0.518426 -0.06102,-0.246643 0.01152,-0.507188 0.191176,-0.686887 l 3.766247,-3.766247 c 0.136079,-0.136067 0.320362,-0.212445 0.51275,-0.212445 0.19226,0 0.376789,0.07641 0.51274,0.212445 l 0.493167,0.493175 10.39218,-10.392657 c 0.13595,-0.1360674 0.320361,-0.2124453 0.512621,-0.2124453 0.192262,0 0.3768,0.076414 0.51275,0.2124453 l 6.133594,6.1338466 c 8.48e-4,8.379e-4 0.0017,0.00171 0.0027,0.00282 8.49e-4,9.005e-4 0.0017,0.00171 0.0028,0.00282 l 6.133729,6.1337224 c 0.283136,0.283145 0.283136,0.742233 0,1.025253 l -5.450464,5.450463 c -8.48e-4,8.48e-4 -9.02e-4,0.0017 -0.0017,0.0028 -7.22e-4,8.49e-4 -0.0017,9.04e-4 -0.0028,0.0017 l -4.937601,4.937598 0.49317,0.493167 c 0.283137,0.283138 0.283137,0.742225 0,1.025244 l -3.765895,3.766257 c -0.137635,0.137761 -0.322778,0.212445 -0.51274,0.212445 -0.05803,0 -0.116498,-0.0072 -0.174139,-0.02127 -0.246643,-0.06101 -0.443382,-0.246758 -0.518544,-0.489418 l -0.120111,-0.388036 -8.147123,8.147244 c -0.136076,0.136071 -0.320361,0.212446 -0.512748,0.212446 -0.19226,0 -0.37679,-0.07638 -0.512741,-0.212446 L 5.1649786,26.288224 C 4.8819607,26.005321 4.8819607,25.546234 5.1650999,25.263096 Z M 24.046596,18.653706 28.473868,14.226433 23.363095,9.1154277 18.93594,13.5427 Z m 4.769017,-14.9910395 -4.427272,4.427389 5.11089,5.1110165 4.427274,-4.4272737 z m 6.136263,6.1364954 -4.42739,4.4273981 5.111134,5.11125 4.427263,-4.427389 z m -0.341512,10.5638931 -5.111133,-5.11125 -4.427272,4.427391 5.111015,5.111258 z m -4.446972,6.458561 -0.493041,-0.493049 c -1.26e-4,-1.19e-4 -1.26e-4,-1.19e-4 -1.26e-4,-1.19e-4 -1.18e-4,0 -1.18e-4,-1.25e-4 -1.18e-4,-1.25e-4 l -6.134692,-6.135055 c -4.78e-4,-4.77e-4 -9.02e-4,-8.37e-4 -0.0017,-0.0017 -4.78e-4,-6.13e-4 -8.46e-4,-9.01e-4 -0.0017,-0.0017 l -6.627491,-6.627851 -2.403604,2.403598 4.3057,1.332678 c 0.228639,0.07074 0.407616,0.249669 0.478309,0.478191 l 1.574967,5.089138 5.089018,1.574966 c 0.228639,0.07074 0.407609,0.24967 0.47831,0.478309 l 1.33255,4.305937 z M 17.950208,37.023457 26.125364,28.8483 25.155104,25.713226 20.066083,24.13825 c -0.228639,-0.07074 -0.407489,-0.249661 -0.478299,-0.4783 l -1.574975,-5.089019 -3.134715,-0.970143 -8.1751552,8.175156 z"
   id="path725"
   style="stroke-width:0.120845" /><g
   id="g727"
   transform="matrix(0.09632876,0,0,0.09632876,5.9082091,4.6596251)">
</g><g
   id="g729"
   transform="matrix(0.09632876,0,0,0.09632876,5.9082091,4.6596251)">
</g><g
   id="g731"
   transform="matrix(0.09632876,0,0,0.09632876,5.9082091,4.6596251)">
</g><g
   id="g733"
   transform="matrix(0.09632876,0,0,0.09632876,5.9082091,4.6596251)">
</g><g
   id="g735"
   transform="matrix(0.09632876,0,0,0.09632876,5.9082091,4.6596251)">
</g><g
   id="g737"
   transform="matrix(0.09632876,0,0,0.09632876,5.9082091,4.6596251)">
</g><g
   id="g739"
   transform="matrix(0.09632876,0,0,0.09632876,5.9082091,4.6596251)">
</g><g
   id="g741"
   transform="matrix(0.09632876,0,0,0.09632876,5.9082091,4.6596251)">
</g><g
   id="g743"
   transform="matrix(0.09632876,0,0,0.09632876,5.9082091,4.6596251)">
</g><g
   id="g745"
   transform="matrix(0.09632876,0,0,0.09632876,5.9082091,4.6596251)">
</g><g
   id="g747"
   transform="matrix(0.09632876,0,0,0.09632876,5.9082091,4.6596251)">
</g><g
   id="g749"
   transform="matrix(0.09632876,0,0,0.09632876,5.9082091,4.6596251)">
</g><g
   id="g751"
   transform="matrix(0.09632876,0,0,0.09632876,5.9082091,4.6596251)">
</g><g
   id="g753"
   transform="matrix(0.09632876,0,0,0.09632876,5.9082091,4.6596251)">
</g><g
   id="g755"
   transform="matrix(0.09632876,0,0,0.09632876,5.9082091,4.6596251)">
</g></g>
</svg>
